<svg xmlns="http://www.w3.org/2000/svg" width="256" height="256"><path fill-opacity=".016" d="M0 128.004v128.004l128.25-.254 128.25-.254.254-127.75L257.008 0H0v128.004m.485.496c0 70.4.119 99.053.265 63.672.146-35.38.146-92.98 0-128C.604 29.153.485 58.1.485 128.5" fill="#1976D2" fill-rule="evenodd"/><path fill-opacity=".227" d="M.131 61.25c.088 41.346.417 58.65 1.011 53.25 5.46-49.638 39.84-92.135 87.005-107.548C96.507 4.22 110.24 1.472 119.5.679 121.7.49 95.713.261 61.75.168L0 0l.131 61.25M136.5.679C200.052 6.124 248.938 53.703 254.992 116c.4 4.125.791-20.287.868-54.25L256 0l-61.75.168C160.287.261 134.3.49 136.5.679M181 83.046c-74.1 1.421-147.504 3.194-147.917 3.573-.229.209-.118.679.246 1.043.364.365 32.727.133 71.917-.514 98.062-1.62 117.897-2.22 117.452-3.554-.476-1.43 2.342-1.393-41.698-.548m-52.239 28.477C52.387 113.307 33 114.06 33 115.24c0 .681 8.353.802 25.25.364 38.675-1.001 152.52-3.57 159-3.588 3.162-.009 5.75-.466 5.75-1.016 0-1.249-24.157-1.115-94.239.523M.133 194.25L0 256l62.25-.139c36.313-.082 58.708-.457 53.75-.901C55.775 249.565 7.435 201.411 1.098 140.5c-.531-5.103-.88 14.359-.965 53.75M255 137.955c0 2.642-.397 3.017-3.75 3.549-21.893 3.471-41.097 11.328-58.934 24.111L185.5 170.5l-76 .5c-49.667.327-76 .846-76 1.5 0 .655 25.601 1.088 74.291 1.256l74.291.257-5.193 5.194c-6.739 6.739-15.679 18.837-20.698 28.012-6.733 12.307-13.072 31.655-14.508 44.281-.309 2.719-.754 3.056-4.762 3.6-2.431.33 23.366.667 57.329.75L256 256v-60.5c0-33.275-.225-60.5-.5-60.5s-.5 1.33-.5 2.955m-155 5.313c-57.603.806-68.771 1.327-66.933 3.122.439.429 95.801-.768 156.683-1.967 18.287-.36 33.25-1.052 33.25-1.539 0-1.015-29.771-.922-123 .384" fill="#1976D2" fill-rule="evenodd"/><path fill-opacity=".479" d="M.126 59.25c.086 39.854.419 56.958 1.019 52.25C7.002 65.548 40.211 23.922 83.666 8.063 91.198 5.314 107.631 1.443 115 .682 116.925.483 91.838.248 59.25.16L0 0l.126 59.25M144.365 1.135c41.035 5.269 78.191 31.18 96.917 67.584 7.223 14.041 12.507 31.102 14.024 45.281.205 1.925.446-22.937.534-55.25L256 0l-59.25.126c-39.286.084-56.937.424-52.385 1.009M.126 196.75L0 256l58.75-.16c32.313-.088 57.175-.329 55.25-.534-19.431-2.079-40.841-10.065-57.971-21.624-8.414-5.678-22.891-19.227-28.989-27.13-13.517-17.52-23.166-40.643-25.895-62.052-.6-4.708-.933 12.396-1.019 52.25m198.874.494c-31.075 31.307-57.4 57.306-58.5 57.776-1.137.485 23.346.881 56.75.917L256 256v-58c0-31.9-.113-57.927-.25-57.839-.137.089-25.675 25.776-56.75 57.083" fill="#1976D2" fill-rule="evenodd"/><path fill-opacity=".466" d="M.122 57.25c.078 36.643.433 55.09.987 51.25.475-3.3 1.999-9.972 3.387-14.826C18.172 45.822 58.178 9.672 106.437 1.559 113.716.335 108.934.194 57.25.102L0 0l.122 57.25M149.563 1.559c40.318 6.778 77.084 34.669 94.395 71.611 4.907 10.471 8.592 21.876 10.445 32.33 1.305 7.365 1.425 3.497 1.507-48.75L256 0l-57.25.102c-51.684.092-56.466.233-49.187 1.457M.102 198.75L0 256l56.75-.09c52.477-.083 56.152-.197 48.805-1.524-9.806-1.77-26.293-7.215-34.708-11.463-36.365-18.357-62.629-53.745-69.288-93.36C.335 142.284.194 147.066.102 198.75M198.5 199l-56.993 57H256v-57c0-31.35-.114-57-.253-57-.14 0-25.901 25.65-57.247 57" fill="#1976D2" fill-rule="evenodd"/></svg>